PathFileType	4	(X/Y/Z)	Kaydara																																																																																																																									
DataRate	CameraRate	NumFrames	NumMarkers	Units	OrigDataRate	OrigDataStartFrame	OrigNumFrames																																																																																																																					
30	30	8	41	mm	30	127	145																																																																																																																					
Frame#	Time	NABA_LFHD			NABA_RFHD			NABA_LBHD			NABA_RBHD			NABA_LFTShould			NABA_RFTShould			NABA_LRRShould			NABA_RRRShould			NABA_T10			NABA_STRN			NABA_TRUN			NABA_LSHO			NABA_LUPA			NABA_LELB			NABA_LFRM			NABA_LWRA			NABA_LWRB			NABA_LFIN			NABA_RSHO			NABA_RUPA			NABA_RELB			NABA_RFRM			NABA_RWRA			NABA_RWRB			NABA_RFIN			NABA_LFWT			NABA_RFWT			NABA_LBWT			NABA_RBWT			NABA_LTHI			NABA_LKNE			NABA_LSHN			NABA_LANK			NABA_LHEE			NABA_LTOE			NABA_RTHI			NABA_RKNE			NABA_RSHN			NABA_RANK			NABA_RHEE			NABA_RTOE		
		X1	Y1	Z1	X2	Y2	Z2	X3	Y3	Z3	X4	Y4	Z4	X5	Y5	Z5	X6	Y6	Z6	X7	Y7	Z7	X8	Y8	Z8	X9	Y9	Z9	X10	Y10	Z10	X11	Y11	Z11	X12	Y12	Z12	X13	Y13	Z13	X14	Y14	Z14	X15	Y15	Z15	X16	Y16	Z16	X17	Y17	Z17	X18	Y18	Z18	X19	Y19	Z19	X20	Y20	Z20	X21	Y21	Z21	X22	Y22	Z22	X23	Y23	Z23	X24	Y24	Z24	X25	Y25	Z25	X26	Y26	Z26	X27	Y27	Z27	X28	Y28	Z28	X29	Y29	Z29	X30	Y30	Z30	X31	Y31	Z31	X32	Y32	Z32	X33	Y33	Z33	X34	Y34	Z34	X35	Y35	Z35	X36	Y36	Z36	X37	Y37	Z37	X38	Y38	Z38	X39	Y39	Z39	X40	Y40	Z40	X41	Y41	Z41
																																																																																																																												
127	4.21	334.34044	1556.01166	1809.04205	163.7805	1577.42859	1810.36301	353.81546	1485.76935	1705.98846	136.50267	1536.23886	1720.50262	296.39832	1292.10068	1814.82742	151.33402	1282.01996	1802.75513	305.92157	1353.71506	1701.03302	156.25569	1357.94586	1699.39926	250.02876	1199.77272	1611.51443	228.97249	1235.70885	1854.12781	226.12455	1134.89113	1893.88245	392.47826	1314.93561	1770.27023	452.45186	1126.21689	1665.35889	481.81717	1037.46536	1660.32089	471.19377	959.86282	1707.69745	404.16321	958.87611	1867.7066	476.58787	946.87111	1873.17139	460.93864	979.07883	1929.06708	72.66965	1315.62668	1755.1712	69.46679	1207.57446	1594.02542	4.65093	1102.03026	1535.69763	-5.39417	992.1907	1554.22379	32.11132	901.7466	1676.25458	-39.40567	882.8212	1658.81958	-33.1562	873.10242	1706.07407	368.26511	906.43753	1788.07709	102.85796	898.98331	1791.70319	322.13425	962.66937	1617.58057	138.38155	984.85626	1620.67871	364.95564	615.13905	1640.74295	348.85239	462.67513	1690.57251	289.77701	271.28735	1709.62891	311.93735	118.88005	1641.85028	253.77394	72.97194	1583.89252	277.59485	42.09776	1759.27322	108.73712	618.67676	1744.4751	140.18909	508.59642	1915.21622	143.60407	324.51328	1888.37646	128.47723	142.65569	1799.65118	170.07343	103.92068	1728.13126	143.44688	58.00378	1896.16379
128	4.243	334.44489	1545.1796	1871.21735	164.24858	1568.11218	1864.13712	360.3685	1482.97836	1764.96521	142.34194	1534.14215	1769.83597	296.85776	1284.67651	1863.7027	149.10254	1272.44392	1849.97742	308.31158	1348.80081	1752.40433	159.09318	1349.74991	1742.91763	256.06684	1190.6916	1661.67328	226.73458	1225.55824	1899.64386	222.20074	1126.26419	1940.96436	391.74267	1310.66376	1825.84656	455.87749	1118.51067	1730.26688	486.13297	1028.84468	1730.4628	471.80214	955.00908	1784.45389	400.78362	972.92503	1940.30487	472.83493	960.83321	1949.49356	457.38625	1003.15216	1995.16479	73.71053	1309.8558	1795.22995	79.50848	1184.37439	1644.11835	13.65159	1070.42725	1594.4458	4.30957	960.3215	1621.47324	34.63203	881.14891	1751.01334	-36.173	859.98138	1731.91193	-33.03245	854.03534	1777.74185	366.95938	901.48399	1847.95944	100.31358	892.72987	1840.82718	319.61206	950.93811	1670.37323	145.53719	973.1398	1668.07388	369.35455	615.60242	1683.46268	352.48188	460.45654	1720.16907	291.71858	267.86627	1725.61523	312.85849	120.64222	1647.03995	253.67798	77.17689	1587.02164	278.49754	41.8228	1760.19897	109.99277	607.12112	1791.87149	133.14998	496.27068	1956.80496	137.09982	318.77909	1968.68256	138.51784	118.57865	1943.49625	191.32973	63.80743	1896.39084	142.27308	64.16627	2067.58469
129	4.277	331.19808	1532.52609	1927.332	162.26088	1558.81592	1910.15198	363.2106	1475.16083	1820.02136	146.33134	1529.73923	1812.91183	294.11509	1280.66772	1913.53668	149.21988	1264.15985	1890.78674	306.13359	1338.86734	1799.06586	157.24186	1336.96854	1789.28253	256.60828	1178.82164	1713.17932	224.13017	1221.15105	1948.87253	220.33335	1124.24942	1994.48135	390.19169	1303.59589	1876.8663	457.2908	1110.2462	1787.27112	485.73559	1021.12427	1786.71555	474.5293	938.16895	1827.29172	408.09471	920.57404	1984.20624	479.8167	908.33954	1989.54758	466.16161	935.14977	2043.4256	70.54385	1297.32269	1839.58893	74.4834	1165.05875	1691.30585	12.36095	1048.44933	1649.39423	2.3771	938.82553	1669.79797	34.58998	852.3542	1791.28281	-35.47756	830.8857	1771.13663	-32.74646	819.95033	1815.33905	368.58238	895.57327	1909.0094	102.45307	881.00517	1897.05399	327.44766	946.08803	1732.48825	150.48978	964.6949	1725.65842	374.50237	616.6695	1728.18924	357.47864	459.3906	1754.15466	295.51603	266.41983	1745.18265	314.86099	125.05164	1655.49698	254.99403	86.23261	1592.16187	279.67854	41.65854	1760.78415	115.7142	594.31049	1835.78629	124.67583	474.97604	1995.73898	137.69116	318.19334	2043.29605	140.50395	119.09168	2071.84677	191.75186	54.14596	2037.12753	147.61887	92.52337	2209.19983
130	4.31	325.8905	1523.29269	1978.41675	157.30034	1548.69232	1956.37497	360.57457	1464.39255	1872.56927	144.11984	1518.52493	1859.06631	290.88139	1272.95692	1969.24942	145.37166	1252.35367	1944.25293	303.0542	1329.57611	1853.69507	155.24683	1327.21848	1842.20932	256.27563	1168.98705	1767.91946	220.0522	1215.67665	2006.11862	217.97791	1117.06543	2050.77927	388.81207	1293.99307	1930.88806	453.64441	1104.47571	1833.74298	482.35706	1016.09886	1829.51508	470.43365	927.5853	1856.14899	402.66426	883.61855	2012.01462	476.27609	869.71024	2010.11551	464.06853	886.39526	2066.49246	67.21494	1285.51468	1891.35452	79.39521	1162.23366	1740.12421	21.03383	1046.85165	1687.31979	11.13488	937.9567	1707.39471	37.25024	853.05084	1833.63983	-32.75068	832.50961	1811.93207	-30.6853	822.06696	1856.77277	373.78075	888.61526	1965.10529	108.99415	869.92111	1956.36566	336.4846	938.47618	1796.66382	149.00633	953.36075	1783.39432	377.12429	615.26539	1776.84647	362.99961	457.06287	1794.93378	298.86517	260.5957	1765.8786	317.76722	131.51135	1666.14899	257.50397	98.77898	1599.90448	281.6856	41.87168	1763.14087	124.80565	582.5135	1896.87454	134.86239	468.54279	2068.56888	146.68653	319.37237	2120.53268	138.84817	121.50813	2156.082	180.25385	49.83657	2119.92828	162.37766	99.44369	2292.74506
131	4.343	322.67712	1518.12332	2029.59457	154.08693	1542.77695	2006.72775	357.37076	1455.7901	1925.72037	140.69484	1509.53705	1910.28122	287.26206	1265.97878	2026.25946	142.4315	1246.69212	1997.36298	304.47407	1326.27182	1912.79053	155.5297	1322.17667	1895.25894	258.65635	1164.01352	1823.32245	216.71377	1208.82973	2061.76147	214.23756	1109.65698	2106.9313	385.63408	1289.21494	1993.58688	451.4278	1109.12071	1879.82773	480.80025	1020.93773	1871.48819	467.06944	930.33005	1891.46393	398.45551	866.81839	2045.40482	467.68139	863.05298	2042.30362	451.58119	877.02049	2099.67773	66.99095	1280.17395	1942.8125	89.37421	1158.61748	1791.63071	31.18165	1048.38997	1730.33981	20.32837	939.24095	1755.1973	37.9271	858.41011	1887.92221	-30.81681	837.01149	1862.86362	-30.25243	827.30988	1908.89847	374.23782	881.57143	2023.10806	107.00535	862.07596	2014.90692	333.88809	929.17847	1850.26642	148.95988	943.69675	1840.48965	379.33022	614.52736	1827.27188	367.7372	455.73448	1840.03723	305.06838	261.86539	1795.49942	323.98396	142.26394	1680.34363	264.87402	117.31869	1610.26367	285.62923	43.0979	1766.2648	121.06267	578.41373	1963.2077	132.43953	471.15078	2125.53619	144.07005	303.83854	2169.68826	150.14608	103.59858	2186.41418	202.13682	40.03757	2152.15378	155.53041	70.67085	2323.59573
132	4.377	321.45531	1519.41345	2083.79562	152.6193	1543.10211	2062.6564	356.20201	1460.44373	1977.97394	138.9607	1512.50198	1965.3476	287.08353	1268.7764	2080.10284	141.41438	1247.6313	2054.21875	301.50669	1327.05994	1962.16248	152.94119	1322.96783	1949.90952	254.35148	1163.82553	1878.52859	215.76733	1210.0621	2117.13226	212.69751	1111.8721	2164.06143	385.73662	1291.42075	2044.42993	450.7328	1110.59509	1933.55896	480.44937	1020.2713	1927.81891	467.38285	930.31914	1943.96286	396.07838	861.20338	2089.74625	467.96574	854.75166	2090.62561	447.92885	864.71298	2149.26254	64.3714	1280.90866	1998.39661	83.47716	1153.97202	1850.45761	26.88442	1038.36006	1795.67566	18.89515	930.59357	1820.35553	38.87978	851.19675	1953.28506	-29.23227	827.79327	1928.41949	-28.63923	818.08601	1974.14871	372.18704	883.8652	2084.48975	104.62432	863.86223	2074.60464	327.17758	929.17732	1908.68011	144.89211	945.9124	1901.67404	376.62968	615.09724	1889.03732	370.00858	456.42769	1904.24606	310.88554	265.61245	1838.59573	330.96344	163.7191	1706.75674	273.83986	149.90841	1634.19861	289.38391	44.95543	1775.42236	123.7429	579.30798	2010.52826	136.24188	458.90812	2169.78378	150.45743	298.55867	2206.39008	162.45832	98.38028	2213.47015	215.44859	44.48551	2167.93503	170.058	46.79327	2349.95346
133	4.41	321.66801	1531.28357	2138.18802	152.16687	1554.48334	2121.23566	354.55467	1475.83603	2029.95224	136.45449	1526.68167	2023.4845	286.17575	1281.66382	2134.22806	140.78758	1260.2108	2111.50223	300.00788	1340.01236	2018.96332	150.55446	1333.63159	2006.97083	252.0841	1175.89432	1932.9039	216.7655	1221.50742	2171.05545	214.92037	1125.04135	2219.21356	384.73591	1304.79492	2098.65646	448.58894	1114.97452	1995.40253	473.90255	1025.21103	1990.60608	462.07348	932.72812	2001.27213	398.36037	856.58173	2141.95679	472.36874	845.35454	2140.07614	459.39053	851.71677	2198.20831	63.26861	1292.28699	2057.61642	71.96856	1154.72923	1912.57172	19.43418	1033.54759	1871.65009	12.77264	926.49475	1901.54984	43.03683	853.76511	2034.31244	-26.12193	829.13887	2014.45465	-22.77407	821.37955	2059.27811	368.53424	893.13583	2136.05133	103.43096	881.61674	2129.00925	321.76514	938.41377	1962.22137	144.51571	962.22618	1954.74915	374.84184	611.9165	1964.08905	375.16708	456.1837	1994.80072	321.01944	272.17901	1910.83664	339.83219	196.80931	1760.14328	283.43576	198.82141	1689.44534	290.32619	45.10209	1791.54572	119.92887	592.12391	2052.77786	140.77887	472.96333	2213.85086	158.18822	301.36881	2236.72577	163.21674	99.67684	2224.59381	206.98618	46.43713	2171.91284	185.38406	45.26857	2349.25995
134	4.443	320.24555	1542.97134	2194.42978	149.45362	1561.42929	2183.03391	351.43463	1493.54172	2082.612	131.71844	1537.62756	2084.51584	288.40313	1294.4223	2184.14581	141.6565	1275.00519	2169.02451	298.92395	1350.504	2069.47495	150.79715	1344.24683	2061.13327	248.65721	1184.68689	1986.43692	219.87953	1236.75537	2224.94537	218.89658	1140.16571	2273.56094	385.21118	1317.31308	2146.56998	451.15528	1125.47112	2052.27905	475.4538	1034.06731	2046.28799	464.94522	940.83145	2052.41653	403.34511	854.87778	2188.58841	478.25039	846.34064	2186.94138	462.84058	849.62364	2245.73608	64.90334	1306.06094	2115.63034	64.65845	1162.0752	1975.13657	10.65815	1038.44749	1944.19144	8.86848	933.8588	1980.48645	49.82554	869.72549	2115.57404	-20.95982	843.0732	2103.42209	-13.55867	839.50279	2150.30289	363.25165	900.30968	2187.92542	97.19585	897.64755	2179.1037	318.81531	946.91528	2013.61328	145.57533	975.95276	2006.04935	377.20898	603.423	2043.54797	379.81522	453.25047	2096.64963	324.58382	278.04176	2004.4809	347.1207	225.73345	1846.27136	292.63746	237.81551	1777.51511	299.98034	67.75173	1850.26291	110.02554	606.74557	2086.4241	129.49863	470.55031	2227.60574	147.76558	299.1853	2245.90607	159.67041	99.4913	2225.12573	204.78794	49.00738	2172.28287	182.94735	39.55101	2354.26483
